<svg xmlns="http://www.w3.org/2000/svg" viewBox="0 0 320 200" width="320" height="200" role="img" aria-label="Interface décisionnelle : barre de navigation, colonne de critères et vue consolidée">
  <rect width="320" height="200" fill="#f4f1e8"/>

  <rect x="26" y="26" width="268" height="1" fill="#14130f" fill-opacity="0.14"/>

  <rect x="26" y="44" width="268" height="20" fill="#0f4c4a"/>
  <rect x="38" y="51" width="34" height="6" fill="#f4f1e8" fill-opacity="0.55"/>
  <rect x="82" y="51" width="26" height="6" fill="#f4f1e8" fill-opacity="0.55"/>
  <rect x="118" y="51" width="30" height="6" fill="#ff4d1f"/>

  <rect x="26" y="64" width="268" height="92" fill="#ffffff"/>
  <rect x="26.5" y="64.5" width="267" height="91" fill="none" stroke="#14130f" stroke-opacity="0.14"/>

  <g fill="#857f73">
    <rect x="42" y="80" width="56" height="6"/>
    <rect x="42" y="96" width="44" height="6"/>
    <rect x="42" y="112" width="52" height="6"/>
    <rect x="42" y="128" width="38" height="6"/>
  </g>

  <rect x="118" y="80" width="0.9" height="60" fill="#14130f" fill-opacity="0.14"/>

  <g fill="#14130f">
    <rect x="138" y="80" width="140" height="8"/>
    <rect x="138" y="100" width="96" height="8"/>
  </g>
  <rect x="138" y="120" width="62" height="20" fill="#e9e5d8"/>
  <rect x="210" y="120" width="68" height="20" fill="#e9e5d8"/>

  <rect x="26" y="173" width="268" height="1" fill="#14130f" fill-opacity="0.14"/>
</svg>
