<svg xmlns="http://www.w3.org/2000/svg" viewBox="0 0 320 200" width="320" height="200" role="img" aria-label="Sources agrégées, modèle de segmentation, quatre segments en sortie">
  <rect width="320" height="200" fill="#f4f1e8"/>

  <rect x="26" y="26" width="268" height="1" fill="#14130f" fill-opacity="0.14"/>

  <g fill="#857f73">
    <rect x="26" y="76" width="50" height="7"/>
    <rect x="26" y="94" width="50" height="7"/>
    <rect x="26" y="112" width="50" height="7"/>
  </g>

  <rect x="76" y="97" width="34" height="1.5" fill="#14130f" fill-opacity="0.35"/>

  <rect x="110" y="60" width="78" height="78" fill="#0f4c4a"/>
  <g fill="#f4f1e8">
    <rect x="127" y="85" width="44" height="6"/>
    <rect x="127" y="99" width="27" height="6"/>
  </g>

  <rect x="188" y="97" width="26" height="1.5" fill="#14130f" fill-opacity="0.35"/>

  <rect x="214" y="65" width="80" height="9" fill="#14130f"/>
  <rect x="214" y="84" width="57" height="9" fill="#14130f"/>
  <rect x="214" y="103" width="68" height="9" fill="#ff4d1f"/>
  <rect x="214" y="122" width="41" height="9" fill="#14130f"/>

  <rect x="26" y="173" width="268" height="1" fill="#14130f" fill-opacity="0.14"/>
</svg>
